{"title":"The Roommate 2011 DVD9rip English Klam","uid":7195568,"size":1269938045,"categoryP":"video","categoryS":"movies","magnet":"?xt=urn:btih:5f8795547e82030710c4d3ff09202ab02a4e5f0a&amp;dn=The+Roommate+2011+DVD9rip+English+Klam&amp;tr=udp%3A%2F%2Ftracker.openbittorrent.com%3A80&amp;tr=udp%3A%2F%2Fopen.demonii.com%3A1337&amp;tr=udp%3A%2F%2Ftracker.coppersurfer.tk%3A6969&amp;tr=udp%3A%2F%2Fexodus.desync.com%3A6969","seeders":1,"leechers":0,"uploader":"Klambake","files":-1,"time":1334767589,"description":"With: Minka Kelly, Leighton Meester and Cam Gigandet\n\nEen eerstejaars studente Sara wordt aangewezen om een kamer te delen met een andere studente Rebecca, die een obsessie voor haar krijgt. Het wordt voor Sara al snel duidelijk dat haar leven niet meer zeker is in haar bijzijn.\n\nCollege student Sara finds that her new roommate Rebecca has an obsession with her, which quickly turns violent. \n\n------------------------ Dutch Friends ------------------------\n---------------------------------------------------------------\n- Bezoek ook eens mijn vrienden op: &lt;a href=&quot; http://www.Film-Test.nl&quot; rel=&quot;nofollow&quot; target=&quot;_NEW&quot;&gt; http://www.Film-Test.nl&lt;/a&gt; --\n----- voor mijn Nederlandse Sync. ondertitels ---- en meer ----\n------- http://www.Film-Test.nl ---- voor Films en meer -------\n---------------------------------------------------------------\n\nGeneral:\n\nComplete name                    : The RoommateThe Roommate.avi\nFormat                           : AVI\nFormat/Info                      : Audio Video Interleave\nFile size                        : 1.18 GiB\nDuration                         : 1h 27mn\nOverall bit rate                 : 1 934 Kbps\n\nVideo:\n\nFormat                           : MPEG-4 Visual\nFormat profile                   : Simple@L3\nFormat settings, BVOP            : No\nFormat settings, QPel            : No\nFormat settings, GMC             : No warppoints\nFormat settings, Matrix          : Default (H.263)\nCodec ID                         : XVID\nCodec ID/Hint                    : XviD\nDuration                         : 1h 27mn\nBit rate                         : 1 475 Kbps\nWidth                            : 720 pixels\nHeight                           : 304 pixels\nDisplay aspect ratio             : 2.35:1\nFrame rate                       : 25.000 fps\nColor space                      : YUV\nChroma subsampling               : 4:2:0\nBit depth                        : 8 bits\nScan type                        : Progressive\nCompression mode                 : Lossy\nBits/(Pixel*Frame)               : 0.270\nStream size                      : 924 MiB (76%)\nWriting library                  : XviD 1.1.2 (UTC 2006-11-01)\n\nAudio:\n\nFormat                           : AC-3\nFormat/Info                      : Audio Coding 3\nMode extension                   : CM (complete main)\nCodec ID                         : 2000\nDuration                         : 1h 27mn\nBit rate mode                    : Constant\nBit rate                         : 448 Kbps\nChannel(s)                       : 6 channels\nChannel positions                : Front: L C R, Side: L R, LFE\nSampling rate                    : 48.0 KHz\nBit depth                        : 16 bits\nCompression mode                 : Lossy\nStream size                      : 280 MiB (23%)\nAlignment                        : Aligned on interleaves\nInterleave, duration             : 32 ms (0.80 video frame)\nInterleave, preload duration     : 288 ms\n\n\n","torrent":{"xt":"urn:btih:5f8795547e82030710c4d3ff09202ab02a4e5f0a","amp;dn":"The+Roommate+2011+DVD9rip+English+Klam","amp;tr":["udp%3A%2F%2Ftracker.openbittorrent.com%3A80","udp%3A%2F%2Fopen.demonii.com%3A1337","udp%3A%2F%2Ftracker.coppersurfer.tk%3A6969","udp%3A%2F%2Fexodus.desync.com%3A6969"],"infoHash":"5f8795547e82030710c4d3ff09202ab02a4e5f0a","infoHashBuffer":{"type":"Buffer","data":[95,135,149,84,126,130,3,7,16,196,211,255,9,32,42,176,42,78,95,10]},"announce":[],"urlList":[]}}